HIERARCHY
ROOT Hips
{
	OFFSET 0.000000 71.427986 0.000000
	CHANNELS 6 Xposition Yposition Zposition Xrotation Yrotation Zrotation
	JOINT Pelvis
	{
		OFFSET 0.000000 0.000000 0.000000
		CHANNELS 3 Xrotation Yrotation Zrotation
		JOINT LeftUpLeg
		{
			OFFSET 6.797100 -2.508499 -1.318700
			CHANNELS 3 Xrotation Yrotation Zrotation
			JOINT LeftLeg
			{
				OFFSET 0.069008 -29.241863 0.690200
				CHANNELS 3 Xrotation Yrotation Zrotation
				JOINT LeftFoot
				{
					OFFSET -0.069008 -29.568123 -0.266800
					CHANNELS 3 Xrotation Yrotation Zrotation
					JOINT LeftToeBase
					{
						OFFSET 3.145500 -8.631000 16.059900
						CHANNELS 3 Xrotation Yrotation Zrotation
						End Site
						{
							OFFSET 0.000000 18.501587 0.000000
						}
					}
				}
			}
			JOINT Left_ShortSleeve
			{
				OFFSET 0.265923 -10.480953 1.153800
				CHANNELS 3 Xrotation Yrotation Zrotation
				End Site
				{
					OFFSET 1.725763 19.823879 0.000000
				}
			}
		}
		JOINT RightUpLeg
		{
			OFFSET -6.797100 -2.508499 -1.318700
			CHANNELS 3 Xrotation Yrotation Zrotation
			JOINT RightLeg
			{
				OFFSET -0.082453 -29.241932 0.688000
				CHANNELS 3 Xrotation Yrotation Zrotation
				JOINT RightFoot
				{
					OFFSET 0.082453 -29.568058 -0.264600
					CHANNELS 3 Xrotation Yrotation Zrotation
					JOINT RightToeBase
					{
						OFFSET -3.115300 -8.682800 16.113400
						CHANNELS 3 Xrotation Yrotation Zrotation
						End Site
						{
							OFFSET 0.000000 18.567114 0.000000
						}
					}
				}
			}
			JOINT Right_ShortSleeve
			{
				OFFSET -0.265923 -10.480953 1.153800
				CHANNELS 3 Xrotation Yrotation Zrotation
				End Site
				{
					OFFSET -1.725766 19.823910 0.000000
				}
			}
		}
	}
	JOINT Spine
	{
		OFFSET 0.000000 13.368103 0.470500
		CHANNELS 3 Xrotation Yrotation Zrotation
		JOINT Spine1
		{
			OFFSET 0.147000 13.837402 0.538800
			CHANNELS 3 Xrotation Yrotation Zrotation
			JOINT Spine2
			{
				OFFSET 0.168000 16.242897 -1.435500
				CHANNELS 3 Xrotation Yrotation Zrotation
				JOINT Neck
				{
					OFFSET 0.217200 18.631500 -1.679100
					CHANNELS 3 Xrotation Yrotation Zrotation
					JOINT Head
					{
						OFFSET 0.000000 6.599396 1.385900
						CHANNELS 3 Xrotation Yrotation Zrotation
						JOINT Hat
						{
							OFFSET -0.532200 27.220596 -10.096100
							CHANNELS 3 Xrotation Yrotation Zrotation
							End Site
							{
								OFFSET 0.000000 22.029861 0.000000
							}
						}
						JOINT HairD
						{
							OFFSET -10.777400 17.437393 -1.325900
							CHANNELS 3 Xrotation Yrotation Zrotation
							JOINT HairD1
							{
								OFFSET -3.290299 -11.051193 1.062200
								CHANNELS 3 Xrotation Yrotation Zrotation
								End Site
								{
									OFFSET 0.000000 11.579437 0.000000
								}
							}
						}
						JOINT HairB
						{
							OFFSET -10.777400 17.437393 1.467900
							CHANNELS 3 Xrotation Yrotation Zrotation
							JOINT HairB1
							{
								OFFSET -1.561200 -12.956299 3.590200
								CHANNELS 3 Xrotation Yrotation Zrotation
								End Site
								{
									OFFSET 0.000000 13.534866 0.000000
								}
							}
						}
						JOINT HairA
						{
							OFFSET 9.713100 17.437393 1.467900
							CHANNELS 3 Xrotation Yrotation Zrotation
							JOINT HairA1
							{
								OFFSET 1.561200 -12.956299 3.590200
								CHANNELS 3 Xrotation Yrotation Zrotation
								End Site
								{
									OFFSET 0.000000 13.534866 0.000000
								}
							}
						}
						JOINT HairC
						{
							OFFSET 9.713100 17.437393 -1.325900
							CHANNELS 3 Xrotation Yrotation Zrotation
							JOINT HairC1
							{
								OFFSET 3.290300 -11.051193 1.062200
								CHANNELS 3 Xrotation Yrotation Zrotation
								End Site
								{
									OFFSET 0.000000 11.579437 0.000000
								}
							}
						}
					}
				}
				JOINT LeftShoulder
				{
					OFFSET 5.101800 15.108002 -2.763700
					CHANNELS 3 Xrotation Yrotation Zrotation
					JOINT LeftArm
					{
						OFFSET 9.825497 2.506317 -1.597400
						CHANNELS 3 Xrotation Yrotation Zrotation
						JOINT LeftForeArm
						{
							OFFSET 21.966244 0.000000 0.000000
							CHANNELS 3 Xrotation Yrotation Zrotation
							JOINT LeftHand
							{
								OFFSET 33.879036 0.000000 0.000000
								CHANNELS 3 Xrotation Yrotation Zrotation
								JOINT LeftHandThumb1
								{
									OFFSET 6.715286 -2.359680 3.363841
									CHANNELS 3 Xrotation Yrotation Zrotation
									JOINT LeftHandThumb2
									{
										OFFSET 2.507072 -1.447464 1.447461
										CHANNELS 3 Xrotation Yrotation Zrotation
										JOINT LeftHandThumb3
										{
											OFFSET 2.898338 -1.673355 1.673357
											CHANNELS 3 Xrotation Yrotation Zrotation
											End Site
											{
												OFFSET -0.295959 3.727692 -0.131651
											}
										}
									}
								}
								JOINT LeftHandIndex1
								{
									OFFSET 14.190811 -0.254547 3.840278
									CHANNELS 3 Xrotation Yrotation Zrotation
									JOINT LeftHandIndex2
									{
										OFFSET 3.551727 0.000000 -0.000000
										CHANNELS 3 Xrotation Yrotation Zrotation
										JOINT LeftHandIndex3
										{
											OFFSET 2.894196 0.000000 0.000000
											CHANNELS 3 Xrotation Yrotation Zrotation
											End Site
											{
												OFFSET -1.000603 2.690872 0.366626
											}
										}
									}
								}
								JOINT LeftHandMiddle1
								{
									OFFSET 13.776489 0.000000 0.000000
									CHANNELS 3 Xrotation Yrotation Zrotation
									JOINT LeftHandMiddle2
									{
										OFFSET 3.438232 0.000000 0.000000
										CHANNELS 3 Xrotation Yrotation Zrotation
										JOINT LeftHandMiddle3
										{
											OFFSET 3.691551 0.000000 0.000000
											CHANNELS 3 Xrotation Yrotation Zrotation
											End Site
											{
												OFFSET -1.082298 3.499527 0.457670
											}
										}
									}
								}
								JOINT LeftHandRing1
								{
									OFFSET 13.966164 -0.268127 -3.067488
									CHANNELS 3 Xrotation Yrotation Zrotation
									JOINT LeftHandRing2
									{
										OFFSET 3.162567 0.000000 0.000000
										CHANNELS 3 Xrotation Yrotation Zrotation
										JOINT LeftHandRing3
										{
											OFFSET 3.324348 0.000000 0.000000
											CHANNELS 3 Xrotation Yrotation Zrotation
											End Site
											{
												OFFSET -0.861900 3.184998 0.405154
											}
										}
									}
								}
								JOINT LeftHandPinky1
								{
									OFFSET 13.131393 -0.168503 -5.746925
									CHANNELS 3 Xrotation Yrotation Zrotation
									JOINT LeftHandPinky2
									{
										OFFSET 2.849182 0.000000 0.000000
										CHANNELS 3 Xrotation Yrotation Zrotation
										JOINT LeftHandPinky3
										{
											OFFSET 2.805038 0.000000 0.000000
											CHANNELS 3 Xrotation Yrotation Zrotation
											End Site
											{
												OFFSET -0.882500 2.642609 0.325652
											}
										}
									}
								}
							}
							JOINT Left_Sleeve
							{
								OFFSET 6.592125 -0.646545 0.805568
								CHANNELS 3 Xrotation Yrotation Zrotation
								End Site
								{
									OFFSET -0.000179 20.275787 -0.000000
								}
							}
						}
					}
				}
				JOINT RightShoulder
				{
					OFFSET -5.731700 15.108002 -2.763700
					CHANNELS 3 Xrotation Yrotation Zrotation
					JOINT RightArm
					{
						OFFSET -9.825497 2.506317 -1.597400
						CHANNELS 3 Xrotation Yrotation Zrotation
						JOINT RightForeArm
						{
							OFFSET -21.966242 0.000000 0.000000
							CHANNELS 3 Xrotation Yrotation Zrotation
							JOINT RightHand
							{
								OFFSET -33.879032 0.000000 0.000000
								CHANNELS 3 Xrotation Yrotation Zrotation
								JOINT RightHandThumb1
								{
									OFFSET -6.715286 -2.359680 3.363841
									CHANNELS 3 Xrotation Yrotation Zrotation
									JOINT RightHandThumb2
									{
										OFFSET -2.507072 -1.447464 1.447461
										CHANNELS 3 Xrotation Yrotation Zrotation
										JOINT RightHandThumb3
										{
											OFFSET -2.898338 -1.673355 1.673357
											CHANNELS 3 Xrotation Yrotation Zrotation
											End Site
											{
												OFFSET 0.295959 3.727692 -0.131651
											}
										}
									}
								}
								JOINT RightHandIndex1
								{
									OFFSET -14.190811 -0.254547 3.840278
									CHANNELS 3 Xrotation Yrotation Zrotation
									JOINT RightHandIndex2
									{
										OFFSET -3.551727 0.000000 -0.000000
										CHANNELS 3 Xrotation Yrotation Zrotation
										JOINT RightHandIndex3
										{
											OFFSET -2.894196 0.000000 0.000000
											CHANNELS 3 Xrotation Yrotation Zrotation
											End Site
											{
												OFFSET 1.000603 2.690872 0.366626
											}
										}
									}
								}
								JOINT RightHandMiddle1
								{
									OFFSET -13.776489 0.000000 0.000000
									CHANNELS 3 Xrotation Yrotation Zrotation
									JOINT RightHandMiddle2
									{
										OFFSET -3.438232 0.000000 0.000000
										CHANNELS 3 Xrotation Yrotation Zrotation
										JOINT RightHandMiddle3
										{
											OFFSET -3.691551 0.000000 0.000000
											CHANNELS 3 Xrotation Yrotation Zrotation
											End Site
											{
												OFFSET 1.082298 3.499527 0.457670
											}
										}
									}
								}
								JOINT RightHandRing1
								{
									OFFSET -13.966164 -0.268127 -3.067488
									CHANNELS 3 Xrotation Yrotation Zrotation
									JOINT RightHandRing2
									{
										OFFSET -3.162567 0.000000 0.000000
										CHANNELS 3 Xrotation Yrotation Zrotation
										JOINT RightHandRing3
										{
											OFFSET -3.324348 0.000000 0.000000
											CHANNELS 3 Xrotation Yrotation Zrotation
											End Site
											{
												OFFSET 0.861900 3.184998 0.405154
											}
										}
									}
								}
								JOINT RightHandPinky1
								{
									OFFSET -13.131393 -0.168503 -5.746925
									CHANNELS 3 Xrotation Yrotation Zrotation
									JOINT RightHandPinky2
									{
										OFFSET -2.849182 0.000000 0.000000
										CHANNELS 3 Xrotation Yrotation Zrotation
										JOINT RightHandPinky3
										{
											OFFSET -2.805038 0.000000 0.000000
											CHANNELS 3 Xrotation Yrotation Zrotation
											End Site
											{
												OFFSET 0.882500 2.642609 0.325652
											}
										}
									}
								}
							}
							JOINT Right_Sleeve
							{
								OFFSET -6.592125 -0.646545 0.805568
								CHANNELS 3 Xrotation Yrotation Zrotation
								End Site
								{
									OFFSET 0.000179 20.275787 -0.000000
								}
							}
						}
					}
				}
				JOINT Bind_Right_JacketString
				{
					OFFSET -3.534800 11.969597 7.200700
					CHANNELS 3 Xrotation Yrotation Zrotation
					JOINT Bind_Right_JacketString1
					{
						OFFSET -0.319900 -6.102600 2.794100
						CHANNELS 3 Xrotation Yrotation Zrotation
						End Site
						{
							OFFSET 0.000000 6.719452 0.000000
						}
					}
				}
				JOINT Bind_Left_JacketString
				{
					OFFSET 2.904800 11.969597 7.200700
					CHANNELS 3 Xrotation Yrotation Zrotation
					JOINT Bind_Left_JacketString1
					{
						OFFSET 0.364800 -5.904503 3.186800
						CHANNELS 3 Xrotation Yrotation Zrotation
						End Site
						{
							OFFSET 0.000000 6.719513 0.000000
						}
					}
				}
				JOINT HairE
				{
					OFFSET 5.915200 17.612701 -11.592200
					CHANNELS 3 Xrotation Yrotation Zrotation
					JOINT HairE1
					{
						OFFSET 0.289200 -7.171898 -1.284500
						CHANNELS 3 Xrotation Yrotation Zrotation
						End Site
						{
							OFFSET 0.000000 7.291756 0.000000
						}
					}
				}
				JOINT HairF
				{
					OFFSET -0.864800 17.612701 -11.592200
					CHANNELS 3 Xrotation Yrotation Zrotation
					JOINT HairF1
					{
						OFFSET 0.000000 -14.087097 -2.127501
						CHANNELS 3 Xrotation Yrotation Zrotation
						End Site
						{
							OFFSET 0.000000 14.246841 0.000000
						}
					}
				}
				JOINT HairG
				{
					OFFSET -8.087700 17.612701 -11.592200
					CHANNELS 3 Xrotation Yrotation Zrotation
					JOINT HairG1
					{
						OFFSET -0.293600 -6.081398 -0.910100
						CHANNELS 3 Xrotation Yrotation Zrotation
						End Site
						{
							OFFSET 0.000000 6.156120 0.000000
						}
					}
				}
			}
		}
	}
	JOINT Pouch
	{
		OFFSET 0.000000 4.394501 10.847300
		CHANNELS 3 Xrotation Yrotation Zrotation
		End Site
		{
			OFFSET 0.000000 21.880577 0.000000
		}
	}
	JOINT Bag
	{
		OFFSET -13.229000 4.813004 -0.593300
		CHANNELS 3 Xrotation Yrotation Zrotation
		End Site
		{
			OFFSET 0.000000 21.880577 0.000000
		}
	}
	JOINT OccupyGuyFacialAnim_Joint
	{
		OFFSET 1.000000 -70.206398 -1.655000
		CHANNELS 3 Xrotation Yrotation Zrotation
		End Site
		{
			OFFSET 0.000000 21.880577 0.000000
		}
	}
}
MOTION
Frames: 4
Frame Time: 0.016667
-0.793228 60.979820 0.824238 19.394351 -43.654584 5.469110 -0.000000 0.000000 0.000001 -66.603756 -7.764942 15.960236 47.495769 -7.606383 4.658747 12.426040 -0.652832 -10.346918 -0.000000 0.000002 -0.000000 0.000001 0.000001 0.000001 -39.664234 -8.857711 -13.336121 57.723773 -8.930565 3.832923 -20.443318 -20.731692 18.072044 0.000000 -0.000000 0.000000 -0.000000 -0.000001 -0.000003 0.690138 6.429671 0.444958 -1.588678 4.492986 -2.192222 -1.597445 -0.195608 1.993553 12.118094 6.829915 -4.433334 -0.737341 20.027392 8.229673 -0.000001 0.000000 0.000000 -0.000001 0.000000 0.000000 -0.000001 0.000000 0.000001 -0.000001 0.000000 0.000001 0.000001 0.000000 0.000000 -0.000001 0.000000 0.000001 0.000001 0.000000 0.000000 -0.000001 0.000000 0.000000 -0.000001 0.000000 0.000000 3.544242 4.756011 -11.623020 -54.038852 -33.116421 -50.381555 0.000444 -81.882364 0.000473 -58.768382 25.992623 38.870316 -14.557472 10.837963 12.229971 0.749540 -4.257876 13.305489 0.000002 0.000001 -0.000001 -0.809538 2.578179 -31.496434 3.095893 5.163752 -61.866959 0.000002 0.000000 0.000002 -2.430840 1.729221 -41.460911 2.952347 5.084719 -60.259931 0.000001 0.000001 -0.000001 -6.054124 -0.166616 -49.857570 3.046239 5.137036 -61.313952 -0.000001 0.000000 0.000000 -8.298312 -6.522648 -38.520150 2.848781 5.024398 -59.084401 -0.000000 -0.000000 0.000001 -0.000001 -0.000003 0.000002 -14.733700 2.115976 -4.463085 72.337570 138.834031 -52.653532 -0.000005 29.080702 0.000005 -49.752467 -7.371295 -31.498766 8.377138 -4.904142 11.021988 21.620195 -18.183886 -18.379204 -0.000002 -0.000001 -0.000000 0.558931 -4.406592 25.436646 1.653021 -3.560326 49.799114 -0.000000 -0.000001 0.000004 10.969817 -12.875573 52.800822 6.387570 -4.324407 111.833686 0.000000 -0.000001 -0.000001 3.705065 -7.151302 57.622447 5.328216 -4.608694 98.293430 -0.000000 -0.000001 0.000004 0.474821 -5.172996 58.987652 3.194334 -4.421924 71.674161 -0.000000 0.000000 -0.000001 -0.000000 -0.000001 0.000001 -0.000000 0.000000 -0.000000 -0.000000 0.000000 -0.000000 -0.000000 0.000000 -0.000000 -0.000000 0.000000 -0.000000 -0.000000 0.000000 -0.000000 -0.000000 0.000000 -0.000000 -0.000000 0.000000 -0.000000 -0.000000 0.000000 -0.000000 -0.000000 0.000000 -0.000000 -0.000000 0.000000 -0.000000 -0.000000 0.000000 0.000001 -0.000000 0.000000 0.000001 -0.000000 0.000000 0.000001 
-0.685798 61.384300 -1.548100 20.261814 -43.618794 6.172133 -0.000000 0.000001 0.000000 -68.722788 -5.780355 14.042620 54.595946 -8.849390 2.576216 6.968727 -0.156581 -11.918997 0.000001 0.000003 -0.000001 -0.000000 -0.000000 0.000000 -42.039797 -9.065678 -12.308700 58.039840 -9.430091 5.165036 -20.272867 -20.608134 15.160464 0.000000 0.000000 0.000000 0.000001 -0.000003 -0.000001 0.956480 6.382860 0.609715 -1.410114 4.462636 -2.203676 -1.413474 -0.229849 1.985879 11.799616 6.804074 -4.313538 -1.333356 19.778520 8.281249 0.000001 0.000000 -0.000000 0.000001 0.000000 -0.000000 0.000001 0.000000 0.000000 0.000001 0.000000 -0.000000 0.000001 0.000000 -0.000000 0.000001 0.000000 -0.000000 0.000001 0.000000 -0.000000 0.000001 0.000000 -0.000000 0.000001 0.000000 -0.000000 3.460879 4.416672 -11.409039 -54.824617 -33.117770 -50.523415 0.000412 -81.497039 0.000416 -58.132355 25.445100 38.283968 -14.557469 10.837969 12.229969 0.749535 -4.257875 13.305488 0.000001 -0.000000 -0.000001 -0.809535 2.578179 -31.496441 3.095891 5.163750 -61.866952 0.000001 -0.000000 -0.000000 -2.430837 1.729222 -41.460918 2.952350 5.084719 -60.259931 0.000001 0.000002 0.000003 -6.054121 -0.166615 -49.857570 3.046236 5.137034 -61.313952 -0.000001 -0.000001 -0.000000 -8.298309 -6.522648 -38.520146 2.848781 5.024396 -59.084401 0.000001 0.000001 0.000003 -0.000000 0.000002 -0.000002 -14.724952 2.110614 -4.402637 72.361961 139.310587 -53.074589 0.000004 28.936913 -0.000006 -48.762414 -6.817467 -31.328561 8.377136 -4.904142 11.021990 21.620183 -18.183885 -18.379204 0.000001 -0.000003 -0.000000 0.558933 -4.406593 25.436647 1.653020 -3.560328 49.799107 0.000000 -0.000000 0.000000 10.969817 -12.875573 52.800818 6.387571 -4.324407 111.833686 0.000001 -0.000000 -0.000001 3.705065 -7.151302 57.622447 5.328218 -4.608692 98.293430 0.000000 -0.000000 0.000001 0.474823 -5.172995 58.987665 3.194335 -4.421924 71.674154 -0.000001 0.000001 -0.000001 -0.000001 0.000001 0.000001 -0.000000 0.000001 -0.000000 -0.000000 -0.000000 -0.000000 -0.000000 0.000001 0.000000 -0.000000 0.000001 0.000000 -0.000000 0.000001 -0.000000 -0.000000 -0.000000 -0.000000 -0.000000 0.000001 0.000000 -0.000000 0.000001 0.000000 -0.000000 0.000001 -0.000000 -0.000000 -0.000000 -0.000000 -0.000000 0.000001 0.000000 -0.000000 0.000001 0.000000 -0.000000 0.000001 0.000000 
-0.531340 61.833206 -3.842499 21.540612 -44.142310 7.149366 -0.000000 0.000001 -0.000000 -69.810865 -3.189173 11.891946 60.920759 -9.902259 0.869530 -0.062931 -0.624123 -9.956547 -0.000001 -0.000000 -0.000000 -0.000004 -0.000001 -0.000003 -44.439885 -9.512007 -11.513392 57.837393 -9.696974 6.785356 -19.735695 -19.251178 11.967647 -0.000000 -0.000000 -0.000000 0.000001 -0.000001 -0.000000 1.082166 6.717456 0.752056 -1.310867 4.621464 -2.233294 -1.314412 -0.079138 1.955557 11.539372 6.719164 -4.205100 -1.771504 19.427322 8.399847 0.000000 -0.000000 0.000000 0.000000 -0.000000 0.000000 0.000000 -0.000000 -0.000000 0.000000 -0.000000 -0.000000 0.000000 -0.000001 0.000001 0.000000 -0.000000 -0.000000 0.000000 -0.000001 0.000001 0.000000 -0.000000 0.000000 0.000000 -0.000000 0.000000 3.451688 4.257293 -11.406560 -55.761541 -33.679332 -50.844854 -0.000350 -80.674199 -0.000330 -57.419303 24.773813 37.437995 -14.557471 10.837966 12.229972 0.749536 -4.257875 13.305484 -0.000000 0.000001 -0.000000 -0.809536 2.578178 -31.496441 3.095890 5.163754 -61.866959 0.000001 0.000001 -0.000000 -2.430836 1.729222 -41.460915 2.952349 5.084722 -60.259931 -0.000001 0.000000 0.000001 -6.054120 -0.166615 -49.857567 3.046239 5.137034 -61.313952 -0.000001 0.000002 -0.000001 -8.298308 -6.522649 -38.520150 2.848780 5.024394 -59.084401 0.000001 -0.000001 -0.000001 0.000003 0.000005 0.000003 -14.702146 2.142260 -4.298180 72.738653 139.648996 -53.739003 0.000000 28.981982 0.000003 -47.783409 -6.248422 -31.304147 8.377138 -4.904144 11.021992 21.620189 -18.183890 -18.379199 -0.000004 0.000000 0.000000 0.558931 -4.406593 25.436652 1.653020 -3.560326 49.799118 -0.000001 0.000000 0.000000 10.969818 -12.875574 52.800818 6.387571 -4.324410 111.833686 0.000001 -0.000001 -0.000001 3.705066 -7.151302 57.622454 5.328218 -4.608691 98.293430 -0.000000 0.000000 0.000002 0.474822 -5.172998 58.987658 3.194335 -4.421925 71.674154 -0.000000 0.000001 0.000001 0.000004 0.000000 0.000001 0.000000 -0.000003 0.000001 0.000001 0.000000 -0.000000 0.000000 -0.000003 0.000000 0.000000 -0.000003 0.000000 0.000000 -0.000003 0.000001 0.000001 0.000000 -0.000000 0.000000 -0.000003 0.000000 0.000000 -0.000003 0.000000 0.000000 -0.000003 0.000001 0.000001 0.000000 -0.000000 -0.000000 0.000001 -0.000000 -0.000000 0.000001 -0.000000 -0.000000 0.000001 -0.000000 
-0.352315 62.275841 -6.072058 23.204588 -45.149716 8.334760 -0.000000 -0.000003 0.000001 -70.038577 -0.684915 10.152684 65.390865 -9.911086 -0.526880 -4.797039 -3.826702 -8.710671 0.000001 0.000001 0.000001 -0.000003 -0.000001 -0.000001 -46.551062 -10.331139 -10.831380 57.009130 -9.944601 8.671837 -18.946298 -16.275513 8.783195 -0.000000 -0.000000 -0.000000 0.000001 0.000002 0.000000 1.069550 7.365271 0.913536 -1.289592 4.928860 -2.265302 -1.295701 0.217605 1.919091 11.325050 6.588897 -4.114614 -2.085925 19.014980 8.543325 0.000001 0.000001 -0.000000 0.000001 0.000001 -0.000000 0.000001 0.000001 -0.000001 0.000001 0.000001 -0.000001 0.000001 -0.000000 -0.000000 0.000001 0.000001 -0.000001 0.000001 -0.000000 -0.000000 0.000001 0.000001 -0.000000 0.000001 0.000001 -0.000000 3.505659 4.264398 -11.583823 -56.751854 -34.575497 -51.320843 0.000187 -79.627636 0.000225 -56.773209 24.062591 36.543336 -14.557469 10.837967 12.229973 0.749537 -4.257875 13.305487 0.000003 0.000001 -0.000000 -0.809535 2.578179 -31.496441 3.095892 5.163754 -61.866952 0.000002 0.000001 -0.000000 -2.430836 1.729221 -41.460911 2.952348 5.084721 -60.259931 -0.000000 -0.000001 -0.000003 -6.054122 -0.166615 -49.857570 3.046240 5.137036 -61.313952 -0.000001 -0.000002 0.000003 -8.298310 -6.522650 -38.520150 2.848780 5.024395 -59.084401 -0.000000 -0.000001 0.000001 0.000001 -0.000001 -0.000003 -14.671335 2.216724 -4.184593 73.273696 139.812948 -54.505340 -0.000001 29.166147 -0.000004 -46.933553 -5.789906 -31.371773 8.377136 -4.904143 11.021990 21.620187 -18.183886 -18.379201 0.000002 -0.000001 0.000000 0.558932 -4.406592 25.436651 1.653021 -3.560325 49.799107 -0.000000 -0.000000 0.000000 10.969817 -12.875572 52.800825 6.387570 -4.324408 111.833686 -0.000001 -0.000000 -0.000001 3.705066 -7.151301 57.622447 5.328216 -4.608691 98.293437 0.000001 0.000001 -0.000002 0.474822 -5.172997 58.987658 3.194335 -4.421925 71.674147 0.000000 0.000001 -0.000001 0.000002 0.000001 0.000001 0.000001 0.000004 -0.000001 0.000001 0.000000 -0.000001 0.000001 0.000004 -0.000001 0.000001 0.000004 -0.000001 0.000001 0.000004 -0.000001 0.000001 0.000000 -0.000000 0.000001 0.000004 -0.000001 0.000001 0.000004 -0.000001 0.000001 0.000004 -0.000001 0.000001 0.000000 -0.000000 -0.000000 -0.000003 0.000001 -0.000000 -0.000003 0.000001 -0.000000 -0.000003 0.000001 
